# xmcd
#
# Track frame offsets:
#	150
#	13033
#	24987
#	36978
#	50670
#	60377
#	73985
#	85121
#	97022
#	107723
#	120730
#	131293
#	142590
#	153414
#	165202
#	177618
#	188926
#	198209
#	209597
#	222643
#	235762
#	245195
#	254745
#	267119
#	279668
#	291783
#
# Disc length: 4041 seconds
#
# Revision: 1
# Processed by: cddbd v1.5.2PL0 Copyright (c) Steve Scherf et al.
# Submitted via: audiograbber 1.83.01
#
DISCID=880fc71a
DTITLE=T-Bone Walker - T-Bone Walker - Get These Blues Off Me CD2
DYEAR=2015
DGENRE=Blues
TTITLE0=Blue Mood
TTITLE1=Got No Use For You
TTITLE2=Railroad Station Blues
TTITLE3=Long Distance Blues
TTITLE4=Party Girl
TTITLE5=You´re Here In The Dark
TTITLE6=Everytime
TTITLE7=Tell Me What´s The Reason
TTITLE8=I´m About To Lose My Mind
TTITLE9=I Miss You Baby
TTITLE10=Pony Tail
TTITLE11=When The Sun Goes Down
TTITLE12=Vida Lee
TTITLE13=My Baby Is Now On My Mind
TTITLE14=Bye Bye Baby
TTITLE15=Wanderin´ Heart
TTITLE16=Teenage Baby
TTITLE17=Strugglin´ Blues
TTITLE18=Love Is Just A Gamble
TTITLE19=High Society
TTITLE20=I´ll Understand
TTITLE21=The Hard Way
TTITLE22=Papa Ain´t Salty
TTITLE23=T-Bone Shuffle
TTITLE24=Why Not
TTITLE25=Play On Little Girl
EXTD=
EXTT0=
EXTT1=
EXTT2=
EXTT3=
EXTT4=
EXTT5=
EXTT6=
EXTT7=
EXTT8=
EXTT9=
EXTT10=
EXTT11=
EXTT12=
EXTT13=
EXTT14=
EXTT15=
EXTT16=
EXTT17=
EXTT18=
EXTT19=
EXTT20=
EXTT21=
EXTT22=
EXTT23=
EXTT24=
EXTT25=
PLAYORDER=
